<svg width="16" height="12" fill="none" xmlns="http://www.w3.org/2000/svg"><path d="M14.187 5.335c.899-.08 1.508-.525 1.743-1.129-.324.217-1.33.453-1.886.228a8.082 8.082 0 00-.088-.399c-.423-1.693-1.873-3.056-3.392-2.892.123-.054.248-.104.372-.15.167-.064 1.148-.238.994-.615-.13-.332-1.33.25-1.555.327.298-.122.79-.332.844-.705a2.303 2.303 0 00-1.251.645.969.969 0 00.24-.517C8.99.974 8.279 2.68 7.704 4.338c-.452-.478-.853-.853-1.212-1.062-1.008-.588-2.213-1.202-4.105-1.967-.058.682.31 1.588 1.369 2.19-.23-.033-.65.042-.985.13.137.78.583 1.423 1.792 1.734-.553.04-.838.177-1.097.472.252.543.866 1.182 1.97 1.05-1.228.577-.5 1.643.498 1.484C4.23 10.286 1.543 10.145 0 8.542c4.029 5.976 12.786 3.534 14.091-2.222.978.01 1.553-.369 1.909-.785-.563.104-1.38-.004-1.813-.2z" fill="#fff"/></svg>