<svg width="24" height="28" viewBox="0 0 24 28" fill="none" xmlns="http://www.w3.org/2000/svg">
<g clip-path="url(#clip0)">
<path d="M11.6465 0.1709L4.1465 8.9209C3.95117 9.14878 3.95117 9.51792 4.1465 9.74575C4.34182 9.97363 4.65823 9.97363 4.85351 9.74575L11.5 1.9915L11.5 27.4166C11.5 27.7391 11.7237 28 12 28C12.2764 28 12.5 27.7391 12.5 27.4166L12.5 1.9915L19.1465 9.74575C19.3418 9.97363 19.6582 9.97363 19.8535 9.74575C19.9512 9.63184 20 9.48254 20 9.3333C20 9.18405 19.9512 9.03481 19.8535 8.92084L12.3535 0.170845C12.1582 -0.0569824 11.8418 -0.0569824 11.6465 0.1709Z" fill="#333333" fill-opacity="0.5"/>
</g>
<defs>
<clipPath id="clip0">
<rect width="28" height="24" fill="white" transform="translate(0 28) rotate(-90)"/>
</clipPath>
</defs>
</svg>
