<svg width="20" height="20" viewBox="0 0 20 20" fill="none" xmlns="http://www.w3.org/2000/svg">
<g clip-path="url(#clip0)">
<path d="M19.9208 19.6883V19.6875H19.9258V12.3525C19.9258 8.76417 19.1533 6 14.9583 6C12.9417 6 11.5883 7.10667 11.0358 8.15583H10.9775V6.335H7V19.6875H11.1417V13.0758C11.1417 11.335 11.4717 9.65167 13.6275 9.65167C15.7517 9.65167 15.7833 11.6383 15.7833 13.1875V19.6883H19.9208Z" fill="#333333" fill-opacity="0.5"/>
<path d="M0.330078 6.64746H4.47675V20H0.330078V6.64746Z" fill="#333333" fill-opacity="0.5"/>
<path d="M2.40167 0C1.07583 0 0 1.07583 0 2.40167C0 3.7275 1.07583 4.82583 2.40167 4.82583C3.7275 4.82583 4.80333 3.7275 4.80333 2.40167C4.8025 1.07583 3.72667 0 2.40167 0V0Z" fill="#333333" fill-opacity="0.5"/>
</g>
<defs>
<clipPath id="clip0">
<rect width="20" height="20" fill="white"/>
</clipPath>
</defs>
</svg>
