<svg width="149" height="18" viewBox="0 0 149 18" fill="none" xmlns="http://www.w3.org/2000/svg">
<path d="M7.47 5.12C8.95133 5.12 10.1393 5.55267 11.034 6.418C11.9287 7.28333 12.376 8.56667 12.376 10.268V17H9.626V10.62C9.626 9.59333 9.384 8.82333 8.9 8.31C8.416 7.782 7.72667 7.518 6.832 7.518C5.82 7.518 5.02067 7.826 4.434 8.442C3.84733 9.04333 3.554 9.916 3.554 11.06V17H0.804V0.675999H3.554V6.616C4.00867 6.132 4.566 5.76533 5.226 5.516C5.90067 5.252 6.64867 5.12 7.47 5.12ZM15.8645 5.252H18.6145V17H15.8645V5.252ZM17.2505 3.316C16.7519 3.316 16.3339 3.162 15.9965 2.854C15.6592 2.53133 15.4905 2.13533 15.4905 1.666C15.4905 1.19667 15.6592 0.807999 15.9965 0.499999C16.3339 0.177333 16.7519 0.0159997 17.2505 0.0159997C17.7492 0.0159997 18.1672 0.169999 18.5045 0.477999C18.8419 0.771333 19.0105 1.14533 19.0105 1.6C19.0105 2.084 18.8419 2.49467 18.5045 2.832C18.1819 3.15467 17.7639 3.316 17.2505 3.316ZM24.8419 6.968C25.6339 5.736 27.0273 5.12 29.0219 5.12V7.738C28.7873 7.694 28.5746 7.672 28.3839 7.672C27.3133 7.672 26.4773 7.98733 25.8759 8.618C25.2746 9.234 24.9739 10.1287 24.9739 11.302V17H22.2239V5.252H24.8419V6.968ZM42.2914 11.192C42.2914 11.3827 42.2767 11.654 42.2474 12.006H33.0294C33.1907 12.8713 33.6087 13.5607 34.2834 14.074C34.9727 14.5727 35.8234 14.822 36.8354 14.822C38.126 14.822 39.1894 14.3967 40.0254 13.546L41.4994 15.24C40.9714 15.8707 40.304 16.3473 39.4974 16.67C38.6907 16.9927 37.7814 17.154 36.7694 17.154C35.4787 17.154 34.342 16.8973 33.3594 16.384C32.3767 15.8707 31.614 15.1593 31.0714 14.25C30.5434 13.326 30.2794 12.2847 30.2794 11.126C30.2794 9.982 30.536 8.95533 31.0494 8.046C31.5774 7.122 32.3034 6.40333 33.2274 5.89C34.1514 5.37667 35.1927 5.12 36.3514 5.12C37.4954 5.12 38.5147 5.37667 39.4094 5.89C40.3187 6.38867 41.0227 7.1 41.5214 8.024C42.0347 8.93333 42.2914 9.98933 42.2914 11.192ZM36.3514 7.32C35.4714 7.32 34.7234 7.584 34.1074 8.112C33.506 8.62533 33.1394 9.31467 33.0074 10.18H39.6734C39.556 9.32933 39.1967 8.64 38.5954 8.112C37.994 7.584 37.246 7.32 36.3514 7.32ZM57.679 5.12C59.1603 5.12 60.3483 5.55267 61.243 6.418C62.1377 7.28333 62.585 8.56667 62.585 10.268V17H59.835V10.62C59.835 9.59333 59.593 8.82333 59.109 8.31C58.625 7.782 57.9357 7.518 57.041 7.518C56.029 7.518 55.2297 7.826 54.643 8.442C54.0563 9.04333 53.763 9.916 53.763 11.06V17H51.013V0.675999H53.763V6.616C54.2177 6.132 54.775 5.76533 55.435 5.516C56.1097 5.252 56.8577 5.12 57.679 5.12ZM77.225 11.192C77.225 11.3827 77.2103 11.654 77.181 12.006H67.963C68.1243 12.8713 68.5423 13.5607 69.217 14.074C69.9063 14.5727 70.757 14.822 71.769 14.822C73.0596 14.822 74.123 14.3967 74.959 13.546L76.433 15.24C75.905 15.8707 75.2376 16.3473 74.431 16.67C73.6243 16.9927 72.715 17.154 71.703 17.154C70.4123 17.154 69.2756 16.8973 68.293 16.384C67.3103 15.8707 66.5476 15.1593 66.005 14.25C65.477 13.326 65.213 12.2847 65.213 11.126C65.213 9.982 65.4696 8.95533 65.983 8.046C66.511 7.122 67.237 6.40333 68.161 5.89C69.085 5.37667 70.1263 5.12 71.285 5.12C72.429 5.12 73.4483 5.37667 74.343 5.89C75.2523 6.38867 75.9563 7.1 76.455 8.024C76.9683 8.93333 77.225 9.98933 77.225 11.192ZM71.285 7.32C70.405 7.32 69.657 7.584 69.041 8.112C68.4396 8.62533 68.073 9.31467 67.941 10.18H74.607C74.4896 9.32933 74.1303 8.64 73.529 8.112C72.9276 7.584 72.1796 7.32 71.285 7.32ZM82.4845 6.968C83.2765 5.736 84.6698 5.12 86.6645 5.12V7.738C86.4298 7.694 86.2172 7.672 86.0265 7.672C84.9558 7.672 84.1198 7.98733 83.5185 8.618C82.9172 9.234 82.6165 10.1287 82.6165 11.302V17H79.8665V5.252H82.4845V6.968ZM94.1699 17.154C92.9819 17.154 91.9113 16.8973 90.9579 16.384C90.0046 15.8707 89.2566 15.1593 88.7139 14.25C88.1859 13.326 87.9219 12.2847 87.9219 11.126C87.9219 9.96733 88.1859 8.93333 88.7139 8.024C89.2566 7.11467 90.0046 6.40333 90.9579 5.89C91.9113 5.37667 92.9819 5.12 94.1699 5.12C95.3726 5.12 96.4506 5.37667 97.4039 5.89C98.3573 6.40333 99.0979 7.11467 99.6259 8.024C100.169 8.93333 100.44 9.96733 100.44 11.126C100.44 12.2847 100.169 13.326 99.6259 14.25C99.0979 15.1593 98.3573 15.8707 97.4039 16.384C96.4506 16.8973 95.3726 17.154 94.1699 17.154ZM94.1699 14.8C95.1819 14.8 96.0179 14.4627 96.6779 13.788C97.3379 13.1133 97.6679 12.226 97.6679 11.126C97.6679 10.026 97.3379 9.13867 96.6779 8.464C96.0179 7.78933 95.1819 7.452 94.1699 7.452C93.1579 7.452 92.3219 7.78933 91.6619 8.464C91.0166 9.13867 90.6939 10.026 90.6939 11.126C90.6939 12.226 91.0166 13.1133 91.6619 13.788C92.3219 14.4627 93.1579 14.8 94.1699 14.8ZM120.656 0.675999V17H118.016V15.482C117.561 16.0393 116.996 16.4573 116.322 16.736C115.662 17.0147 114.928 17.154 114.122 17.154C112.992 17.154 111.973 16.9047 111.064 16.406C110.169 15.9073 109.465 15.2033 108.952 14.294C108.438 13.37 108.182 12.314 108.182 11.126C108.182 9.938 108.438 8.88933 108.952 7.98C109.465 7.07067 110.169 6.36667 111.064 5.868C111.973 5.36933 112.992 5.12 114.122 5.12C114.899 5.12 115.61 5.252 116.256 5.516C116.901 5.78 117.451 6.176 117.906 6.704V0.675999H120.656ZM114.452 14.8C115.112 14.8 115.706 14.6533 116.234 14.36C116.762 14.052 117.18 13.6193 117.488 13.062C117.796 12.5047 117.95 11.8593 117.95 11.126C117.95 10.3927 117.796 9.74733 117.488 9.19C117.18 8.63267 116.762 8.20733 116.234 7.914C115.706 7.606 115.112 7.452 114.452 7.452C113.792 7.452 113.198 7.606 112.67 7.914C112.142 8.20733 111.724 8.63267 111.416 9.19C111.108 9.74733 110.954 10.3927 110.954 11.126C110.954 11.8593 111.108 12.5047 111.416 13.062C111.724 13.6193 112.142 14.052 112.67 14.36C113.198 14.6533 113.792 14.8 114.452 14.8ZM135.297 11.192C135.297 11.3827 135.283 11.654 135.253 12.006H126.035C126.197 12.8713 126.615 13.5607 127.289 14.074C127.979 14.5727 128.829 14.822 129.841 14.822C131.132 14.822 132.195 14.3967 133.031 13.546L134.505 15.24C133.977 15.8707 133.31 16.3473 132.503 16.67C131.697 16.9927 130.787 17.154 129.775 17.154C128.485 17.154 127.348 16.8973 126.365 16.384C125.383 15.8707 124.62 15.1593 124.077 14.25C123.549 13.326 123.285 12.2847 123.285 11.126C123.285 9.982 123.542 8.95533 124.055 8.046C124.583 7.122 125.309 6.40333 126.233 5.89C127.157 5.37667 128.199 5.12 129.357 5.12C130.501 5.12 131.521 5.37667 132.415 5.89C133.325 6.38867 134.029 7.1 134.527 8.024C135.041 8.93333 135.297 9.98933 135.297 11.192ZM129.357 7.32C128.477 7.32 127.729 7.584 127.113 8.112C126.512 8.62533 126.145 9.31467 126.013 10.18H132.679C132.562 9.32933 132.203 8.64 131.601 8.112C131 7.584 130.252 7.32 129.357 7.32ZM148.724 5.252L143.686 17H140.848L135.81 5.252H138.67L142.322 13.964L146.084 5.252H148.724Z" fill="black"/>
</svg>
