<svg width="15" height="15" fill="none" xmlns="http://www.w3.org/2000/svg"><g clip-path="url(#clip0)" fill="#000" fill-opacity=".8"><path d="M14.318 0H8.864a.682.682 0 000 1.364h3.808L5.654 8.382a.682.682 0 10.965.964l7.017-7.018v3.808a.682.682 0 001.364 0V.682A.682.682 0 0014.318 0z"/><path d="M11.59 6.818a.682.682 0 00-.68.682v6.136H1.363V4.091H7.5a.682.682 0 000-1.364H.682A.682.682 0 000 3.41v10.91c0 .376.305.681.682.681H11.59a.682.682 0 00.682-.682V7.5a.682.682 0 00-.682-.682z"/></g><defs><clipPath id="clip0"><path fill="#fff" d="M0 0h15v15H0z"/></clipPath></defs></svg>