<svg width="20" height="20" fill="none" xmlns="http://www.w3.org/2000/svg"><g clip-path="url(#clip0)" fill="#333" fill-opacity=".5"><path d="M19.92 19.688h.006v-7.335c0-3.589-.773-6.353-4.968-6.353-2.016 0-3.37 1.107-3.922 2.156h-.059V6.335H7v13.352h4.142v-6.611c0-1.741.33-3.424 2.486-3.424 2.124 0 2.155 1.986 2.155 3.536v6.5h4.138zM.33 6.647h4.147V20H.33V6.647zM2.402 0A2.402 2.402 0 000 2.402c0 1.325 1.076 2.424 2.402 2.424 1.325 0 2.401-1.098 2.401-2.424A2.403 2.403 0 002.402 0z"/></g><defs><clipPath id="clip0"><path fill="#fff" d="M0 0h20v20H0z"/></clipPath></defs></svg>