<svg width="149" height="18" fill="none" xmlns="http://www.w3.org/2000/svg"><path d="M7.47 5.12c1.481 0 2.67.433 3.564 1.298.895.865 1.342 2.149 1.342 3.85V17h-2.75v-6.38c0-1.027-.242-1.797-.726-2.31-.484-.528-1.173-.792-2.068-.792-1.012 0-1.811.308-2.398.924-.587.601-.88 1.474-.88 2.618V17H.804V.676h2.75v5.94a4.38 4.38 0 011.672-1.1c.675-.264 1.423-.396 2.244-.396zm8.395.132h2.75V17h-2.75V5.252zm1.385-1.936c-.498 0-.916-.154-1.254-.462a1.58 1.58 0 01-.505-1.188c0-.47.168-.858.505-1.166.338-.323.756-.484 1.254-.484.5 0 .917.154 1.255.462.337.293.506.667.506 1.122 0 .484-.17.895-.506 1.232-.323.323-.741.484-1.255.484zm7.592 3.652c.792-1.232 2.185-1.848 4.18-1.848v2.618a3.49 3.49 0 00-.638-.066c-1.07 0-1.907.315-2.508.946-.601.616-.902 1.51-.902 2.684V17h-2.75V5.252h2.618v1.716zm17.45 4.224c0 .19-.015.462-.045.814H33.03c.162.865.58 1.555 1.254 2.068.69.499 1.54.748 2.552.748 1.291 0 2.354-.425 3.19-1.276L41.5 15.24a4.967 4.967 0 01-2.002 1.43c-.806.323-1.716.484-2.728.484-1.29 0-2.427-.257-3.41-.77-.982-.513-1.745-1.225-2.288-2.134-.528-.924-.792-1.965-.792-3.124 0-1.144.257-2.17.77-3.08a5.595 5.595 0 012.178-2.156c.924-.513 1.966-.77 3.124-.77 1.144 0 2.164.257 3.058.77a5.195 5.195 0 012.112 2.134c.514.91.77 1.965.77 3.168zm-5.94-3.872c-.88 0-1.629.264-2.245.792-.601.513-.968 1.203-1.1 2.068h6.666c-.117-.85-.476-1.54-1.078-2.068-.601-.528-1.349-.792-2.244-.792zm21.327-2.2c1.481 0 2.67.433 3.564 1.298.895.865 1.342 2.149 1.342 3.85V17h-2.75v-6.38c0-1.027-.242-1.797-.726-2.31-.484-.528-1.173-.792-2.068-.792-1.012 0-1.811.308-2.398.924-.587.601-.88 1.474-.88 2.618V17h-2.75V.676h2.75v5.94a4.38 4.38 0 011.672-1.1c.675-.264 1.423-.396 2.244-.396zm19.546 6.072c0 .19-.015.462-.044.814h-9.218c.161.865.58 1.555 1.254 2.068.69.499 1.54.748 2.552.748 1.29 0 2.354-.425 3.19-1.276l1.474 1.694a4.967 4.967 0 01-2.002 1.43c-.807.323-1.716.484-2.728.484-1.29 0-2.427-.257-3.41-.77-.983-.513-1.745-1.225-2.288-2.134-.528-.924-.792-1.965-.792-3.124 0-1.144.257-2.17.77-3.08a5.595 5.595 0 012.178-2.156c.924-.513 1.965-.77 3.124-.77 1.144 0 2.163.257 3.058.77a5.195 5.195 0 012.112 2.134c.513.91.77 1.965.77 3.168zm-5.94-3.872c-.88 0-1.628.264-2.244.792-.601.513-.968 1.203-1.1 2.068h6.666c-.117-.85-.477-1.54-1.078-2.068-.601-.528-1.35-.792-2.244-.792zm11.2-.352c.791-1.232 2.185-1.848 4.18-1.848v2.618a3.491 3.491 0 00-.639-.066c-1.07 0-1.906.315-2.507.946-.602.616-.903 1.51-.903 2.684V17h-2.75V5.252h2.618v1.716zM94.17 17.154c-1.188 0-2.259-.257-3.212-.77a5.715 5.715 0 01-2.244-2.134c-.528-.924-.792-1.965-.792-3.124s.264-2.193.792-3.102a5.715 5.715 0 012.244-2.134c.953-.513 2.024-.77 3.212-.77 1.203 0 2.28.257 3.234.77a5.56 5.56 0 012.222 2.134c.543.91.814 1.943.814 3.102 0 1.159-.271 2.2-.814 3.124a5.56 5.56 0 01-2.222 2.134c-.953.513-2.031.77-3.234.77zm0-2.354c1.012 0 1.848-.337 2.508-1.012.66-.675.99-1.562.99-2.662 0-1.1-.33-1.987-.99-2.662-.66-.675-1.496-1.012-2.508-1.012s-1.848.337-2.508 1.012c-.645.675-.968 1.562-.968 2.662 0 1.1.323 1.987.968 2.662.66.675 1.496 1.012 2.508 1.012zM120.656.676V17h-2.64v-1.518a4.247 4.247 0 01-1.694 1.254c-.66.279-1.394.418-2.2.418-1.13 0-2.149-.25-3.058-.748a5.41 5.41 0 01-2.112-2.112c-.514-.924-.77-1.98-.77-3.168 0-1.188.256-2.237.77-3.146a5.41 5.41 0 012.112-2.112c.909-.499 1.928-.748 3.058-.748.777 0 1.488.132 2.134.396.645.264 1.195.66 1.65 1.188V.676h2.75zM114.452 14.8a3.61 3.61 0 001.782-.44c.528-.308.946-.74 1.254-1.298.308-.557.462-1.203.462-1.936 0-.733-.154-1.379-.462-1.936a3.183 3.183 0 00-1.254-1.276 3.47 3.47 0 00-1.782-.462 3.47 3.47 0 00-1.782.462 3.183 3.183 0 00-1.254 1.276c-.308.557-.462 1.203-.462 1.936 0 .733.154 1.379.462 1.936.308.557.726.99 1.254 1.298a3.61 3.61 0 001.782.44zm20.845-3.608c0 .19-.014.462-.044.814h-9.218c.162.865.58 1.555 1.254 2.068.69.499 1.54.748 2.552.748 1.291 0 2.354-.425 3.19-1.276l1.474 1.694a4.964 4.964 0 01-2.002 1.43c-.806.323-1.716.484-2.728.484-1.29 0-2.427-.257-3.41-.77-.982-.513-1.745-1.225-2.288-2.134-.528-.924-.792-1.965-.792-3.124 0-1.144.257-2.17.77-3.08a5.595 5.595 0 012.178-2.156c.924-.513 1.966-.77 3.124-.77 1.144 0 2.164.257 3.058.77a5.186 5.186 0 012.112 2.134c.514.91.77 1.965.77 3.168zm-5.94-3.872c-.88 0-1.628.264-2.244.792-.601.513-.968 1.203-1.1 2.068h6.666c-.117-.85-.476-1.54-1.078-2.068-.601-.528-1.349-.792-2.244-.792zm19.367-2.068L143.686 17h-2.838L135.81 5.252h2.86l3.652 8.712 3.762-8.712h2.64z" fill="#000"/></svg>